HIERARCHY
ROOT simHips
{
  OFFSET 6.13146 95.3961 -0.669452
  CHANNELS 6 Xposition Yposition Zposition Zrotation Xrotation Yrotation
  JOINT simSpine
  {
    OFFSET -0.000360269 21.3001 -0.0169217
    CHANNELS 3 Zrotation Xrotation Yrotation
    JOINT simLeftArm
    {
      OFFSET 13.5181 21.3012 -2.3511e-005
      CHANNELS 3 Zrotation Xrotation Yrotation
      JOINT simLeftForeArm
      {
        OFFSET 24.5783 0 -6.3921e-005
        CHANNELS 3 Zrotation Xrotation Yrotation
        JOINT simLeftHand
        {
          OFFSET 24.5783 0 0
          CHANNELS 3 Zrotation Xrotation Yrotation
          End Site
          {
            OFFSET 7.32568 1.52588e-005 0.0169305
          }
        }
      }
    }
    JOINT simHead
    {
      OFFSET 0 27.4458 -0.00488811
      CHANNELS 3 Zrotation Xrotation Yrotation
      End Site
      {
        OFFSET 0 0 0
      }
    }
    JOINT simRightArm
    {
      OFFSET -13.5174 21.3012 -1.52733e-005
      CHANNELS 3 Zrotation Xrotation Yrotation
      JOINT simRightForeArm
      {
        OFFSET -24.5783 -0.000552281 0.000112897
        CHANNELS 3 Zrotation Xrotation Yrotation
        JOINT simRightHand
        {
          OFFSET -24.5783 0 1.19926e-005
          CHANNELS 3 Zrotation Xrotation Yrotation
          End Site
          {
            OFFSET -7.32568 1.52588e-005 0.0169305
          }
        }
      }
    }
  }
  JOINT simRightUpLeg
  {
    OFFSET -8.44614 -9.41038 0.835682
    CHANNELS 3 Zrotation Xrotation Yrotation
    JOINT simRightLeg
    {
      OFFSET -3.23466e-005 -40.9639 0
      CHANNELS 3 Zrotation Xrotation Yrotation
      JOINT simRightFoot
      {
        OFFSET 0 -40.9639 0
        CHANNELS 3 Zrotation Xrotation Yrotation
        End Site
        {
          OFFSET 0.50614 -9.67405 14.6709
        }
      }
    }
  }
  JOINT simLeftUpLeg
  {
    OFFSET 8.44614 -9.41038 0.835681
    CHANNELS 3 Zrotation Xrotation Yrotation
    JOINT simLeftLeg
    {
      OFFSET -0.00018133 -40.964 6.2497e-005
      CHANNELS 3 Zrotation Xrotation Yrotation
      JOINT simLeftFoot
      {
        OFFSET 0 -40.9639 0
        CHANNELS 3 Zrotation Xrotation Yrotation
        End Site
        {
          OFFSET -0.50614 -9.67405 14.6709
        }
      }
    }
  }
}
MOTION
Frames:	27
Frame Time:	0.0333333
-106.181 96.9355 33.1742 56.7814 28.0076 -67.9226 -13.0203 22.8248 10.1565 -59.2947 7.44956 -19.0014 -0.000150563 1.99991e-005 -89.9491 -6.974 -65.5914 -26.2815 -0.76989 -9.98098 15.805 48.7066 -17.2078 76.889 0.00561711 -1.32934e-005 64.1766 165.956 4.36748 -163.8 -23.7542 -61.9222 -31.0375 -179.991 73.7988 179.58 -30.7308 11.8855 -1.58307 -47.289 -85.5302 -43.3742 0.000872159 51.416 -0.0254241 -0.745747 -24.2154 -0.667785 
-113.922 98.1843 33.9102 56.8492 30.5262 -66.6222 -9.09042 22.408 7.28976 -62.6111 14.7382 -24.9723 -0.000259486 -9.05682e-006 -91.0971 7.95284 -63.6586 -8.80725 1.54431 -8.23131 14.981 49.2423 -24.9369 73.6056 0.00610385 -1.44192e-005 61.8041 167.685 7.41789 -163.582 -66.8444 -76.5016 -68.5658 -180 66.3418 179.072 -35.2844 9.10503 -2.00634 -11.0214 -82.6204 -10.1788 0.00303036 48.8827 -0.0751203 -4.0548 -22.9583 -2.90889 
-122.891 99.7576 34.7731 56.1983 33.0931 -63.5467 -4.59375 22.1633 5.07342 -60.8862 20.5879 -28.234 0.00027443 -5.26931e-006 -94.9526 15.9142 -59.4737 -0.759265 1.36237 -6.65826 12.3757 47.8959 -31.7467 65.813 0.00659725 -1.37933e-005 63.1293 170.333 8.70699 -165.3 -123.835 -73.9311 -118.956 180 70.8424 178.636 -35.6761 6.06217 -5.27487 0.601434 -77.1604 -2.76819 -5.69113e-006 43.8328 -0.111768 -6.90103 -18.5386 -4.51749 
-132.512 101.724 36.0625 54.4068 35.4116 -58.7433 0.809767 22.0711 3.49979 -57.247 24.4306 -30.4253 0.000690881 -9.15066e-006 -98.6226 21.4867 -56.7977 6.63228 -0.167062 -4.17559 9.18073 42.5386 -37.1624 53.7094 0.00709567 -1.15025e-005 67.8574 171.867 10.2548 -165.466 -136.926 -67.02 -124.657 -180 83.4098 178.663 -26.8234 3.2076 -9.1865 4.8779 -69.9759 -3.24604 0.00333291 36.007 -0.0702665 -9.22224 -9.83777 -4.61811 
-142.336 103.267 37.6143 52.0992 36.3882 -52.9886 6.23032 21.2585 2.40009 -53.5189 27.4265 -30.827 0.0009942 -1.28555e-005 -102.159 22.1872 -55.2631 8.67053 -2.58424 -1.54111 6.49408 34.7423 -39.7965 39.0464 0.00759717 -7.7012e-006 75.3832 171.936 12.9519 -162.985 -132.521 -63.1109 -113.609 6.83592e-005 76.8634 -1.07893 -20.3887 2.87998 -15.1867 6.35811 -61.0599 -5.78385 -4.73621e-006 25.6678 0.0379243 -12.6704 1.23837 -2.18011 
-151.839 103.902 39.7816 49.46 35.9879 -47.0508 11.0582 19.7386 1.32299 -51.7502 27.7474 -28.6267 0.00119652 -1.68789e-005 -106.054 19.6601 -53.154 7.82206 -4.23757 -0.309429 4.49282 27.8217 -39.3266 26.084 0.00809962 -3.27393e-006 83.8415 168.468 16.8504 -160.566 -116.408 -59.1294 -96.9098 -1.92518e-006 49.3521 -0.84621 -24.8598 5.73437 -13.8084 7.24309 -52.1213 -5.95441 -0.00252806 17.3728 0.214538 -17.694 12.2193 2.78103 
-161.35 103.14 42.608 45.4005 34.1467 -39.951 15.392 18.044 0.182937 -49.595 26.4573 -25.2657 0.00131014 -2.08502e-005 -109.975 18.5864 -53.0146 9.54132 -4.61142 -0.191614 1.59594 24.2103 -36.3368 16.8669 0.00860136 2.41895e-007 90.4542 163.599 21.2879 -158.336 -93.8101 -52.5573 -87.4004 -4.80639e-005 17.4344 -0.614275 -31.2059 6.81585 -0.724433 7.44354 -42.2247 -1.26944 -0.000487093 13.0515 0.419645 -20.744 20.2009 6.18342 
-171.844 100.577 45.4151 41.2039 30.9744 -33.6666 17.5937 15.4828 0.0293887 -46.1067 24.3593 -21.3944 0.00134784 -2.34899e-005 -112.635 17.6222 -52.3663 8.92184 -3.79294 -0.346764 -1.24046 26.1456 -32.0819 13.1655 0.00910129 2.68553e-006 95.0485 159.135 21.8387 -155.032 -83.067 -48.8677 -87.2145 3.50066e-005 5.21361 -0.807691 -30.973 -2.16962 -0.561132 7.78912 -31.9136 2.37759 7.5885e-005 12.5204 0.479744 -19.6793 23.3872 6.71306 
-182.976 97.0064 48.2812 36.8858 27.5911 -29.3479 19.2492 12.728 0.729816 -42.8601 21.4075 -16.3002 0.00132125 -2.66181e-005 -115.856 17.8039 -51.9917 9.63256 -1.53885 0.967545 -2.03834 32.4261 -26.7385 15.5124 0.00959833 3.04391e-006 95.7244 155.831 20.2378 -155.49 -77.5564 -46.4887 -91.2942 0.00014971 7.83961 -0.965011 -28.0627 -3.03295 -0.802819 9.84652 -22.3831 3.27764 -4.96097e-005 15.129 0.450002 -14.7484 24.1854 5.11984 
-193.71 93.2363 50.8681 35.02 24.7931 -29.3083 19.2549 9.71299 3.16647 -41.3353 16.634 -9.09393 0.00124302 -2.92556e-005 -118.641 14.2834 -52.3991 8.27327 -0.155883 0.346598 -1.05072 40.8465 -20.0109 22.164 0.0100911 1.6674e-006 93.132 157.399 16.8163 -156.897 -83.3714 -47.6784 -86.3721 -7.99762e-005 22.1405 -0.395497 -9.62279 9.06936 -2.08268 11.4684 -15.8532 7.51362 -4.49311e-006 21.2068 0.479989 -6.91046 23.0867 2.61028 
-203.722 90.1413 52.8621 35.0794 23.2776 -33.5483 20.2163 7.95974 7.10155 -43.8131 10.7394 -0.00573773 0.00112667 -2.93408e-005 -118.732 11.4488 -51.4424 3.82946 -3.89665 -2.77994 0.727698 47.0499 -10.8609 32.5761 0.0105778 -2.38689e-006 85.5141 157.765 15.1782 -160.04 -95.6942 -56.0803 -81.5531 -4.19547e-006 41.681 0.317176 19.0736 9.62698 -11.9481 11.8498 -16.2152 11.4001 -2.81653e-005 35.6509 0.616936 1.6383 20.7389 3.54964 
-212.367 88.4431 53.8454 37.101 21.6969 -41.3878 20.8801 9.55795 11.1461 -49.4916 4.36717 9.86462 0.000984804 -2.61656e-005 -115.385 6.87577 -50.5675 -3.17049 -8.16542 -10.3238 4.22696 48.1876 -1.30081 46.9662 0.0110559 -8.79526e-006 73.2496 159.311 12.4911 -163.79 -112.677 -64.3358 -99.2274 4.65968e-005 59.887 0.171465 9.61314 0.223514 -7.17416 8.06987 -24.1498 10.6317 -1.95636e-005 56.4505 0.706987 0.939678 20.3763 4.93192 
-219.402 88.3834 54.2189 38.0143 20.6867 -45.3109 21.5823 13.9195 12.9251 -54.1052 3.42123 13.9573 0.000828872 -2.00869e-005 -109.214 4.93367 -55.0008 -5.97053 -7.05287 -19.2787 4.15603 46.1409 4.23626 62.4129 0.0115232 -1.61207e-005 58.1131 162.081 7.81436 -164.512 -116.916 -69.3963 -104.881 -3.31002e-005 66.9341 0.198054 8.36148 -7.84292 -5.24177 4.89686 -36.5569 10.9328 0.00015938 75.4176 0.73147 1.09055 19.7913 -0.263568 
-225.708 89.2008 54.2212 39.3883 21.1469 -45.8935 21.3144 16.1454 13.9463 -56.1942 7.63208 14.2264 0.000670539 -8.66088e-006 -98.1578 -6.69808 -65.4971 -17.4585 -1.95116 -23.8007 4.08091 45.9744 8.62136 70.183 0.0119811 -1.95485e-005 50.166 164.995 0.282833 -165.018 -115.388 -71.0805 -106.108 -2.59712e-005 70.4951 0.232782 8.50019 -13.6852 -4.16494 1.94375 -52.0395 10.1647 -0.000245167 89.4877 0.646606 0.0231518 16.0296 1.0376 
-231.827 90.233 54.0797 40.7866 22.1699 -45.7471 19.552 17.1257 14.5346 -56.3578 9.41965 14.327 0.0005194 4.90373e-006 -85.3917 -30.1146 -65.6805 -42.3929 1.79864 -26.708 4.7005 45.1504 13.7091 73.1969 0.0124297 -1.95346e-005 50.1999 163.439 -5.62272 -165.92 -112.806 -72.1594 -107.284 -4.53434e-005 72.7113 0.136013 4.61754 -17.0644 -4.15312 -3.97066 -68.4676 6.45467 180 82.4032 -179.539 4.40664 10.5738 7.34737 
-238.127 91.2712 54.0643 41.2277 23.0338 -45.9921 17.1679 18.264 14.981 -54.8578 7.89223 15.6067 0.000387598 1.63942e-005 -74.4189 -45.5539 -61.1063 -59.1564 3.06536 -27.2196 3.45408 41.6337 19.3259 74.6 0.0128665 -1.76549e-005 54.6538 159.413 -6.85842 -166.677 -104.798 -74.2727 -103.856 1.15361e-005 73.6917 0.0384266 0.795361 -19.8553 -4.22068 -23.3074 -81.3081 -12.7519 180 81.6502 -179.705 10.5154 5.9641 13.0286 
-244.649 92.3729 54.1586 40.9517 23.3671 -47.0182 12.894 19.6311 15.3535 -51.4468 3.76858 17.809 0.000146116 2.49226e-005 -65.8999 -52.2438 -56.0533 -66.6734 4.0447 -25.9107 2.84702 38.2287 24.637 76.4154 0.013289 -1.49325e-005 60.7048 158.394 -6.2854 -166.491 -87.379 -76.7879 -91.6815 -5.29497e-005 73.1586 -0.0431144 -2.70814 -21.9001 -3.62962 -115.187 -85.1703 -107.875 -180 86.711 -179.821 10.4423 1.47168 12.9154 
-251.287 93.5705 54.4451 40.0607 23.4226 -48.6171 8.20619 21.1044 16.4691 -47.1476 -0.1647 20.1983 -0.0223378 3.01068e-005 -60.4443 -58.4564 -53.3689 -71.8724 3.06856 -23.2762 2.03232 36.3343 29.2039 77.5183 0.0136952 -1.16983e-005 67.4599 157.415 -10.0467 -164.443 -58.2374 -77.4267 -68.2145 -0.000143983 71.1635 -0.083859 -5.32793 -23.1695 -1.75191 -148.466 -81.9862 -145.835 0.00020195 81.8524 0.0561392 5.16091 -4.32646 8.50764 
-257.943 94.4955 54.9008 39.1041 23.2787 -50.6765 2.84722 21.8245 18.3607 -42.5132 -3.7434 22.7165 -0.000215399 3.22501e-005 -58.1036 -61.6231 -53.2643 -76.2965 1.1614 -20.1067 1.20619 35.1105 32.8282 78.0904 0.0140835 -8.51094e-006 73.8062 155.821 -11.4365 -162.508 -31.7723 -75.0257 -46.7582 -0.000142858 69.1002 -0.0802497 -5.73524 -23.7887 1.65455 -149.904 -82.6496 -150.283 7.0093e-005 62.9649 0.0189266 4.18069 -6.79524 5.9451 
-264.713 94.8216 55.7841 37.7927 22.6091 -52.1778 -2.6402 22.056 19.8745 -38.5395 -7.51523 24.7435 4.71594e-005 3.30015e-005 -57.269 -64.777 -51.5899 -80.0649 -1.30067 -17.6801 0.163153 35.1574 35.2503 77.6416 0.0144522 -5.90044e-006 78.8519 153.391 -13.7386 -163.721 -17.383 -69.9981 -36.1848 -0.000889619 68.2044 -0.0744912 -3.583 -23.9378 6.89375 -138.331 -86.2296 -139.907 6.5733e-005 41.6359 -0.0533214 -0.601099 -5.55658 2.21308 
-271.928 94.2114 57.2983 35.1569 21.5456 -53.2768 -7.27139 22.1481 21.417 -36.2707 -9.62575 27.1168 4.85147e-005 3.07911e-005 -59.7031 -64.8273 -51.434 -82.2279 -2.85661 -15.3799 -0.665322 35.4173 36.8306 75.9619 0.0148002 -3.16871e-006 84.0401 152.065 -18.5036 -164.218 -8.90793 -63.188 -30.6559 0.0123674 68.7276 -0.0706431 0.750115 -22.7281 13.3732 -44.494 -86.3702 -50.8666 -2.97787e-005 26.3309 -0.110275 -5.41303 -8.11801 -1.1776 
-279.227 92.7959 59.0332 31.0281 21.2124 -54.3374 -9.55926 21.6801 22.3664 -36.7719 -11.8747 30.2286 5.1188e-005 2.56745e-005 -65.1243 -64.2911 -51.9323 -79.9688 -3.69513 -12.746 0.758009 35.8113 36.5973 73.3872 0.0151261 -7.41647e-007 88.6074 152.947 -19.6899 -162.836 -2.83596 -55.9617 -27.9955 2.55145e-005 70.5879 -0.0690359 6.48747 -18.2704 19.3658 -8.7789 -82.7329 -19.6201 -0.00378801 21.1252 -0.247415 -13.855 -7.88919 -2.17519 
-286.374 90.5581 60.9267 26.988 20.7819 -55.4886 -11.2647 20.1228 22.491 -39.9461 -13.2484 32.1395 5.33122e-005 2.04797e-005 -70.3946 -61.1781 -51.3473 -76.7774 -2.94249 -10.9757 3.32578 36.9439 34.8578 69.9839 0.0154284 1.4285e-006 92.6829 154.909 -18.3977 -161.33 -0.32125 -49.3042 -27.2607 8.8903e-005 73.3083 -0.122599 16.4429 -7.42613 24.0425 -3.90135 -79.5054 -21.6125 -0.0107378 22.2652 -0.181601 -10.5735 4.77507 -0.619454 
-292.466 87.6311 62.1245 24.3451 21.5672 -55.7177 -11.5857 17.1164 20.4401 -45.6708 -12.6943 31.603 5.49993e-005 1.49186e-005 -75.8521 -54.3651 -51.9787 -71.7083 -1.43551 -10.6573 6.16913 38.0671 30.3729 66.1787 0.0157057 3.18945e-006 95.999 156.444 -16.4758 -160.488 -1.32427 -46.5673 -29.1881 8.66825e-005 79.1232 -0.251692 26.8669 5.14165 22.4925 -10.8856 -83.7511 -33.1732 -0.00589832 33.6431 -0.181015 -13.2725 16.1639 -0.270487 
-298.409 85.8763 62.2425 21.8036 21.497 -54.0695 -12.6445 17.1718 17.0524 -51.8291 -11.4377 25.4529 5.57712e-005 1.14285e-005 -79.208 -51.6278 -51.8682 -68.4199 0.0121061 -14.1865 8.60832 38.6274 22.876 63.9999 0.0159568 4.37671e-006 98.2456 156.71 -15.6016 -158.419 -3.87598 -45.7269 -32.2794 -0.00360843 87.6092 -0.308356 25.1423 4.36359 13.7782 14.486 -88.8592 -5.8818 -1.34975e-005 50.218 -0.318578 -16.4732 9.08079 -6.37461 
-303.264 85.6726 61.7322 20.9207 21.3197 -52.675 -13.7041 18.0815 14.8877 -58.0517 -5.94446 11.0623 5.49715e-005 1.50288e-005 -75.7454 -48.0104 -52.017 -68.8792 -0.228971 -17.5756 8.88866 39.5536 13.3815 62.295 0.0161801 4.74181e-006 98.9388 157.304 -13.9667 -156.884 -9.24639 -47.8983 -34.5349 -179.999 84.083 179.659 22.5973 -1.99541 4.56195 76.3209 -87.365 57.4336 0.0008345 55.1502 -0.301174 -15.3101 6.57629 -11.5824 
-307.067 86.2251 60.7836 20.4633 21.5107 -52.0517 -13.7353 18.6761 13.0711 -62.8026 -0.848907 -3.97713 5.30071e-005 2.1317e-005 -69.5581 -45.1984 -52.462 -65.0844 0.65293 -15.8386 11.3504 42.8851 4.79176 60.4301 0.0163744 4.52707e-006 98.5309 159.898 -11.9247 -156.315 -16.0126 -51.091 -34.9914 -179.999 78.6414 179.555 20.2665 -3.99599 4.50092 75.768 -85.3375 56.8074 0.000233057 56.5835 -0.23996 -15.3512 5.81362 -12.4496 
